<svg width="1610" height="145" viewBox="0 0 1610 145" fill="none" xmlns="http://www.w3.org/2000/svg">
<path d="M0 50.7C2.51333 43.3333 6.71667 38.2633 12.61 35.49C18.5033 32.7167 28.9467 31.33 43.94 31.33C47.06 31.33 54.9467 31.46 67.6 31.72C76.7867 31.98 84.89 33.9733 91.91 37.7C98.93 41.4267 104.39 46.7133 108.29 53.56C112.277 60.32 114.27 68.2067 114.27 77.22C114.27 90.8267 109.937 101.833 101.27 110.24C92.69 118.56 81.4667 122.72 67.6 122.72H23.53L23.66 121.42H25.22C27.3867 121.42 29.25 120.727 30.81 119.34C32.37 117.867 33.28 116.09 33.54 114.01V35.62C22.7067 35.88 15.0367 37.57 10.53 40.69C8.19 42.3367 6.41333 43.94 5.2 45.5C3.98667 46.9733 2.73 48.88 1.43 51.22L0 50.7ZM41.99 35.62V118.82H67.6C78.6067 118.82 87.49 115.007 94.25 107.38C101.097 99.7533 104.52 89.7 104.52 77.22C104.52 68.9867 102.96 61.75 99.84 55.51C96.8067 49.1833 92.4733 44.2867 86.84 40.82C81.2933 37.3533 74.88 35.62 67.6 35.62H41.99Z" fill="url(#paint0_linear_72_4)"/>
<path d="M153.967 35.75H145.647V113.23C145.647 115.483 146.427 117.433 147.987 119.08C149.633 120.64 151.627 121.42 153.967 121.42H155.527L155.657 122.72H127.187V121.42H128.877C131.13 121.42 133.037 120.64 134.597 119.08C136.243 117.52 137.11 115.613 137.197 113.36V41.21C137.11 38.9567 136.243 37.05 134.597 35.49C133.037 33.8433 131.13 33.02 128.877 33.02H127.187V31.72H162.287C170.173 31.72 176.37 33.93 180.877 38.35C185.383 42.6833 187.637 48.36 187.637 55.38C187.637 62.3133 185.47 68.3367 181.137 73.45C176.89 78.4767 171.69 80.99 165.537 80.99C166.837 81.5967 168.353 82.81 170.087 84.63C171.907 86.3633 173.51 88.1833 174.897 90.09C182.35 100.75 187.203 107.337 189.457 109.85C191.71 112.277 193.313 113.967 194.267 114.92C195.22 115.787 196.26 116.653 197.387 117.52C198.513 118.387 199.64 119.08 200.767 119.6C203.28 120.813 205.967 121.42 208.827 121.42V122.72H201.677C197.95 122.72 194.483 122.07 191.277 120.77C188.07 119.383 185.643 117.997 183.997 116.61C182.437 115.137 181.05 113.75 179.837 112.45C178.71 111.063 175.503 106.557 170.217 98.93C164.93 91.3033 161.853 86.97 160.987 85.93C160.12 84.8033 159.21 83.72 158.257 82.68C155.483 79.7333 152.71 78.26 149.937 78.26V76.96C150.63 77.0467 151.54 77.09 152.667 77.09C153.793 77.09 155.18 77.0467 156.827 76.96C167.573 76.7 174.333 72.1933 177.107 63.44C177.627 61.7067 177.887 60.1033 177.887 58.63C177.887 57.07 177.887 56.0733 177.887 55.64C177.713 49.8333 176.197 45.1533 173.337 41.6C170.477 38.0467 166.62 36.14 161.767 35.88C159.687 35.7933 157.087 35.75 153.967 35.75Z" fill="url(#paint1_linear_72_4)"/>
<path d="M212.92 121.42C215.173 121.42 217.08 120.64 218.64 119.08C220.286 117.433 221.153 115.483 221.24 113.23V40.43C221.24 38.35 220.416 36.6167 218.77 35.23C217.123 33.7567 215.173 33.02 212.92 33.02H211.36L211.23 31.72H249.32C252.006 31.72 254.91 31.46 258.03 30.94C261.236 30.42 263.49 29.9 264.79 29.38V45.76H263.49V43.42C263.49 41.34 262.753 39.5633 261.28 38.09C259.893 36.6167 258.203 35.8367 256.21 35.75H229.69V75.92H251.66C253.393 75.8333 254.866 75.1833 256.08 73.97C257.293 72.7567 257.9 71.24 257.9 69.42V67.6H259.2V88.14H257.9V86.19C257.9 84.4567 257.293 82.9833 256.08 81.77C254.953 80.5567 253.523 79.9067 251.79 79.82H229.69V118.69H248.28C254.693 118.69 259.59 117.26 262.97 114.4C266.35 111.54 269.166 107.293 271.42 101.66H272.72L265.18 122.72H211.23V121.42H212.92Z" fill="url(#paint2_linear_72_4)"/>
<path d="M371.539 121.42H372.579V122.72H343.329V121.42H344.499C346.319 121.42 347.662 120.857 348.529 119.73C349.482 118.517 349.959 117.39 349.959 116.35C349.959 115.31 349.786 114.27 349.439 113.23L341.119 91.13H306.019L297.309 113.36C296.962 114.4 296.789 115.44 296.789 116.48C296.789 117.433 297.222 118.517 298.089 119.73C299.042 120.857 300.429 121.42 302.249 121.42H303.419V122.72H277.289V121.42H278.459C280.626 121.42 282.749 120.727 284.829 119.34C286.909 117.953 288.599 115.917 289.899 113.23L319.279 43.29C322.486 36.27 324.089 31.8067 324.089 29.9H325.259L360.099 113.23C361.312 115.917 362.959 117.953 365.039 119.34C367.119 120.727 369.286 121.42 371.539 121.42Z" fill="url(#paint3_linear_72_4)"/>
<path d="M488.008 121.42H490.088V122.72H461.878V121.55H463.828C465.301 121.55 466.558 120.987 467.598 119.86C468.638 118.733 469.071 117.433 468.898 115.96L463.048 50.57L435.748 111.28C433.321 116.567 431.848 120.987 431.328 124.54H430.028L396.748 52.39L391.158 115.96C390.984 117.347 391.418 118.647 392.458 119.86C393.498 120.987 394.754 121.55 396.228 121.55H398.178V122.72H372.958V121.42H375.038C377.464 121.42 379.544 120.683 381.278 119.21C383.098 117.737 384.181 115.743 384.528 113.23L394.278 29.9H395.578L431.848 108.29L467.338 29.9H468.508L478.518 113.23C478.864 115.743 479.948 117.737 481.768 119.21C483.588 120.683 485.668 121.42 488.008 121.42Z" fill="url(#paint4_linear_72_4)"/>
<path d="M624.248 121.42C626.501 121.42 628.408 120.64 629.968 119.08C631.615 117.433 632.481 115.483 632.568 113.23V40.43C632.568 38.35 631.745 36.6167 630.098 35.23C628.451 33.7567 626.501 33.02 624.248 33.02H622.688L622.558 31.72H660.648C663.334 31.72 666.238 31.46 669.358 30.94C672.564 30.42 674.818 29.9 676.118 29.38V45.76H674.818V43.42C674.818 41.34 674.081 39.5633 672.608 38.09C671.221 36.6167 669.531 35.8367 667.538 35.75H641.018V75.92H662.988C664.721 75.8333 666.195 75.1833 667.408 73.97C668.621 72.7567 669.228 71.24 669.228 69.42V67.6H670.528V88.14H669.228V86.19C669.228 84.4567 668.621 82.9833 667.408 81.77C666.281 80.5567 664.851 79.9067 663.118 79.82H641.018V118.69H659.608C666.021 118.69 670.918 117.26 674.298 114.4C677.678 111.54 680.494 107.293 682.748 101.66H684.048L676.508 122.72H622.558V121.42H624.248Z" fill="url(#paint5_linear_72_4)"/>
<path d="M782.867 121.42H783.907V122.72H754.657V121.42H755.827C757.647 121.42 758.99 120.857 759.857 119.73C760.81 118.517 761.287 117.39 761.287 116.35C761.287 115.31 761.114 114.27 760.767 113.23L752.447 91.13H717.347L708.637 113.36C708.29 114.4 708.117 115.44 708.117 116.48C708.117 117.433 708.55 118.517 709.417 119.73C710.37 120.857 711.757 121.42 713.577 121.42H714.747V122.72H688.617V121.42H689.787C691.954 121.42 694.077 120.727 696.157 119.34C698.237 117.953 699.927 115.917 701.227 113.23L730.607 43.29C733.814 36.27 735.417 31.8067 735.417 29.9H736.587L771.427 113.23C772.64 115.917 774.287 117.953 776.367 119.34C778.447 120.727 780.614 121.42 782.867 121.42Z" fill="url(#paint6_linear_72_4)"/>
<path d="M840.125 31.72H866.255V33.02H865.085C862.918 33.02 860.795 33.7133 858.715 35.1C856.635 36.4 854.988 38.3933 853.775 41.08L822.445 111.15C819.238 118.17 817.635 122.633 817.635 124.54H816.465L779.935 41.21C778.722 38.4367 777.032 36.4 774.865 35.1C772.785 33.7133 770.662 33.02 768.495 33.02H767.455V31.72H796.705V33.02H795.535C793.715 33.02 792.328 33.6267 791.375 34.84C790.508 35.9667 790.075 37.05 790.075 38.09C790.075 39.0433 790.292 40.04 790.725 41.08L817.895 109.2L846.235 41.08C846.582 40.04 846.755 39.0433 846.755 38.09C846.755 37.05 846.278 35.9667 845.325 34.84C844.458 33.6267 843.115 33.02 841.295 33.02H840.125V31.72Z" fill="url(#paint7_linear_72_4)"/>
<path d="M874.345 121.42C876.599 121.42 878.505 120.64 880.065 119.08C881.712 117.433 882.579 115.483 882.665 113.23V40.43C882.665 38.35 881.842 36.6167 880.195 35.23C878.549 33.7567 876.599 33.02 874.345 33.02H872.785L872.655 31.72H910.745C913.432 31.72 916.335 31.46 919.455 30.94C922.662 30.42 924.915 29.9 926.215 29.38V45.76H924.915V43.42C924.915 41.34 924.179 39.5633 922.705 38.09C921.319 36.6167 919.629 35.8367 917.635 35.75H891.115V75.92H913.085C914.819 75.8333 916.292 75.1833 917.505 73.97C918.719 72.7567 919.326 71.24 919.326 69.42V67.6H920.625V88.14H919.326V86.19C919.326 84.4567 918.719 82.9833 917.505 81.77C916.379 80.5567 914.949 79.9067 913.215 79.82H891.115V118.69H909.705C916.119 118.69 921.015 117.26 924.395 114.4C927.775 111.54 930.592 107.293 932.845 101.66H934.145L926.605 122.72H872.655V121.42H874.345Z" fill="url(#paint8_linear_72_4)"/>
<path d="M973.195 35.75H964.875V113.23C964.875 115.483 965.655 117.433 967.215 119.08C968.862 120.64 970.855 121.42 973.195 121.42H974.755L974.885 122.72H946.415V121.42H948.105C950.359 121.42 952.265 120.64 953.825 119.08C955.472 117.52 956.339 115.613 956.425 113.36V41.21C956.339 38.9567 955.472 37.05 953.825 35.49C952.265 33.8433 950.359 33.02 948.105 33.02H946.415V31.72H981.515C989.402 31.72 995.599 33.93 1000.11 38.35C1004.61 42.6833 1006.87 48.36 1006.87 55.38C1006.87 62.3133 1004.7 68.3367 1000.37 73.45C996.119 78.4767 990.919 80.99 984.765 80.99C986.065 81.5967 987.582 82.81 989.315 84.63C991.135 86.3633 992.739 88.1833 994.125 90.09C1001.58 100.75 1006.43 107.337 1008.69 109.85C1010.94 112.277 1012.54 113.967 1013.5 114.92C1014.45 115.787 1015.49 116.653 1016.62 117.52C1017.74 118.387 1018.87 119.08 1020 119.6C1022.51 120.813 1025.2 121.42 1028.06 121.42V122.72H1020.91C1017.18 122.72 1013.71 122.07 1010.51 120.77C1007.3 119.383 1004.87 117.997 1003.23 116.61C1001.67 115.137 1000.28 113.75 999.065 112.45C997.939 111.063 994.732 106.557 989.445 98.93C984.159 91.3033 981.082 86.97 980.215 85.93C979.349 84.8033 978.439 83.72 977.485 82.68C974.712 79.7333 971.939 78.26 969.165 78.26V76.96C969.859 77.0467 970.769 77.09 971.895 77.09C973.022 77.09 974.409 77.0467 976.055 76.96C986.802 76.7 993.562 72.1933 996.335 63.44C996.855 61.7067 997.115 60.1033 997.115 58.63C997.115 57.07 997.115 56.0733 997.115 55.64C996.942 49.8333 995.425 45.1533 992.565 41.6C989.705 38.0467 985.849 36.14 980.995 35.88C978.915 35.7933 976.315 35.75 973.195 35.75Z" fill="url(#paint9_linear_72_4)"/>
<path d="M1132.54 70.46C1133.06 73.9267 1133.32 77.61 1133.32 81.51C1133.32 85.41 1132.8 89.44 1131.76 93.6C1128.47 106.687 1120.63 115.787 1108.23 120.9C1102.34 123.327 1095.84 124.54 1088.73 124.54C1069.23 124.54 1054.2 120.293 1043.62 111.8C1033.14 103.307 1027.89 91.8667 1027.89 77.48C1027.89 63.0067 1033.35 51.48 1044.27 42.9C1055.19 34.2333 1070.01 29.9 1088.73 29.9C1101.73 29.9 1112.91 31.8933 1122.27 35.88L1120.97 60.71H1119.8C1115.3 44.5033 1105.16 36.4 1089.38 36.4C1078.9 36.4 1070.79 39.9533 1065.07 47.06C1059.35 54.08 1056.49 63.83 1056.49 76.31C1056.49 88.79 1059.48 98.8 1065.46 106.34C1071.44 113.793 1080.07 117.693 1091.33 118.04C1103.73 118.04 1113.52 114.053 1120.71 106.08C1127.91 98.02 1131.5 87.1867 1131.5 73.58C1131.5 72.54 1131.5 71.5 1131.5 70.46H1132.54Z" fill="url(#paint10_linear_72_4)"/>
<path d="M1193 29.9C1204.18 29.9 1213.8 31.7633 1221.86 35.49C1230.01 39.2167 1236.25 44.6767 1240.58 51.87C1244.92 58.9767 1247.08 67.4267 1247.08 77.22C1247.08 92.04 1242.27 103.653 1232.65 112.06C1223.03 120.38 1209.82 124.54 1193 124.54C1176.19 124.54 1162.97 120.38 1153.35 112.06C1143.82 103.653 1139.05 92.04 1139.05 77.22C1139.05 62.4 1143.82 50.83 1153.35 42.51C1162.97 34.1033 1176.19 29.9 1193 29.9ZM1174.41 107.25C1178.92 114.443 1185.12 118.04 1193 118.04C1200.98 118.04 1207.17 114.443 1211.59 107.25C1216.1 100.057 1218.35 90.0467 1218.35 77.22C1218.35 64.3933 1216.1 54.3833 1211.59 47.19C1207.17 39.9967 1200.98 36.4 1193 36.4C1185.12 36.4 1178.92 39.9967 1174.41 47.19C1169.99 54.3833 1167.78 64.3933 1167.78 77.22C1167.78 90.0467 1169.99 100.057 1174.41 107.25Z" fill="url(#paint11_linear_72_4)"/>
<path d="M1378.19 121.42H1380.27V122.72H1334.12V121.55H1336.2C1337.59 121.55 1338.8 120.987 1339.84 119.86C1340.97 118.647 1341.44 117.347 1341.27 115.96L1336.33 78L1314.23 110.76C1312.76 112.84 1311.46 115.353 1310.33 118.3C1309.2 121.247 1308.68 123.76 1308.77 125.84H1307.6L1273.8 79.17L1269.25 115.96C1269.08 117.347 1269.51 118.647 1270.55 119.86C1271.68 120.987 1272.93 121.55 1274.32 121.55H1276.4V122.72H1247.8V121.42H1249.88C1252.31 121.42 1254.39 120.683 1256.12 119.21C1257.94 117.737 1259.02 115.743 1259.37 113.23L1270.81 29.9H1271.98L1315.66 89.57L1355.7 29.9H1356.87L1368.7 113.23C1369.13 115.743 1370.22 117.737 1371.95 119.21C1373.68 120.683 1375.76 121.42 1378.19 121.42Z" fill="url(#paint12_linear_72_4)"/>
<path d="M1382.32 121.42C1384.57 121.42 1386.48 120.64 1388.04 119.08C1389.69 117.433 1390.55 115.483 1390.64 113.23V41.08C1390.55 38.8267 1389.69 36.92 1388.04 35.36C1386.48 33.8 1384.57 33.02 1382.32 33.02H1380.63V31.72H1427.3V33.02H1425.61C1423.36 33.02 1421.41 33.8 1419.76 35.36C1418.2 36.92 1417.38 38.8267 1417.29 41.08V113.23C1417.29 115.483 1418.11 117.433 1419.76 119.08C1421.41 120.64 1423.36 121.42 1425.61 121.42H1427.3V122.72H1380.63V121.42H1382.32Z" fill="url(#paint13_linear_72_4)"/>
<path d="M1432.57 77.09C1432.57 67.2967 1434.82 58.8467 1439.33 51.74C1443.84 44.6333 1450.34 39.2167 1458.83 35.49C1467.41 31.7633 1477.9 29.9 1490.29 29.9C1502.68 29.9 1513.56 31.8933 1522.92 35.88L1521.62 60.71H1520.45C1517.94 51.9567 1514.3 45.7167 1509.53 41.99C1504.76 38.2633 1498.83 36.4 1491.72 36.4C1482.1 36.4 1474.6 39.9533 1469.23 47.06C1463.86 54.1667 1461.17 64.09 1461.17 76.83C1461.17 89.4833 1463.64 99.45 1468.58 106.73C1473.61 114.01 1480.54 117.78 1489.38 118.04C1499.61 118.04 1507.02 115.613 1511.61 110.76C1515.94 106.253 1519.32 97.5867 1521.75 84.76H1522.79L1525.91 108.42C1519.5 119.167 1507.36 124.497 1489.51 124.41C1471.74 124.41 1457.79 120.293 1447.65 112.06C1437.6 103.74 1432.57 92.0833 1432.57 77.09Z" fill="url(#paint14_linear_72_4)"/>
<path d="M1609.89 93.34C1609.89 103.827 1606.16 111.67 1598.71 116.87C1591.25 121.983 1581.33 124.54 1568.94 124.54C1561.74 124.54 1555.42 123.76 1549.96 122.2C1544.5 120.553 1540.55 118.517 1538.13 116.09C1537.35 114.183 1536.96 112.147 1536.96 109.98C1536.96 107.727 1537.13 105.56 1537.48 103.48C1538.43 98.3667 1540.03 94.38 1542.29 91.52H1543.46C1543.37 92.04 1543.33 92.6033 1543.33 93.21C1543.33 99.6233 1545.84 105.387 1550.87 110.5C1555.98 115.527 1562.91 118.04 1571.67 118.04C1577.56 118.04 1582.07 116.827 1585.19 114.4C1588.39 111.887 1590 109.07 1590 105.95C1590 102.743 1588.91 100.013 1586.75 97.76C1584.58 95.5067 1581.07 93.2533 1576.22 91L1555.03 81.12C1549.05 78.4333 1544.71 74.6633 1542.03 69.81C1539.86 65.9967 1538.78 61.7933 1538.78 57.2C1538.78 47.84 1541.94 40.7333 1548.27 35.88C1553.55 31.8933 1560.57 29.9 1569.33 29.9C1575.05 29.9 1582.37 30.3333 1591.3 31.2H1601.44L1598.58 52.39H1597.28C1597.28 47.6233 1595.41 43.7667 1591.69 40.82C1587.96 37.8733 1583.19 36.4 1577.39 36.4C1571.67 36.4 1567.2 37.3967 1564 39.39C1560.88 41.3833 1559.19 44.0267 1558.93 47.32C1558.58 51.3933 1561.18 54.86 1566.73 57.72C1567.68 58.24 1568.94 58.8033 1570.5 59.41L1594.81 70.72C1604.86 75.3133 1609.89 82.8533 1609.89 93.34Z" fill="url(#paint15_linear_72_4)"/>
<defs>
<linearGradient id="paint0_linear_72_4" x1="13" y1="83.22" x2="1615" y2="83.22" gradientUnits="userSpaceOnUse">
<stop offset="0.35" stop-color="#E6EEFF"/>
<stop offset="0.9" stop-color="#C9B8FF"/>
</linearGradient>
<linearGradient id="paint1_linear_72_4" x1="13" y1="83.22" x2="1615" y2="83.22" gradientUnits="userSpaceOnUse">
<stop offset="0.35" stop-color="#E6EEFF"/>
<stop offset="0.9" stop-color="#C9B8FF"/>
</linearGradient>
<linearGradient id="paint2_linear_72_4" x1="13" y1="83.22" x2="1615" y2="83.22" gradientUnits="userSpaceOnUse">
<stop offset="0.35" stop-color="#E6EEFF"/>
<stop offset="0.9" stop-color="#C9B8FF"/>
</linearGradient>
<linearGradient id="paint3_linear_72_4" x1="13" y1="83.22" x2="1615" y2="83.22" gradientUnits="userSpaceOnUse">
<stop offset="0.35" stop-color="#E6EEFF"/>
<stop offset="0.9" stop-color="#C9B8FF"/>
</linearGradient>
<linearGradient id="paint4_linear_72_4" x1="13" y1="83.22" x2="1615" y2="83.22" gradientUnits="userSpaceOnUse">
<stop offset="0.35" stop-color="#E6EEFF"/>
<stop offset="0.9" stop-color="#C9B8FF"/>
</linearGradient>
<linearGradient id="paint5_linear_72_4" x1="13" y1="83.22" x2="1615" y2="83.22" gradientUnits="userSpaceOnUse">
<stop offset="0.35" stop-color="#E6EEFF"/>
<stop offset="0.9" stop-color="#C9B8FF"/>
</linearGradient>
<linearGradient id="paint6_linear_72_4" x1="13" y1="83.22" x2="1615" y2="83.22" gradientUnits="userSpaceOnUse">
<stop offset="0.35" stop-color="#E6EEFF"/>
<stop offset="0.9" stop-color="#C9B8FF"/>
</linearGradient>
<linearGradient id="paint7_linear_72_4" x1="13" y1="83.22" x2="1615" y2="83.22" gradientUnits="userSpaceOnUse">
<stop offset="0.35" stop-color="#E6EEFF"/>
<stop offset="0.9" stop-color="#C9B8FF"/>
</linearGradient>
<linearGradient id="paint8_linear_72_4" x1="13" y1="83.22" x2="1615" y2="83.22" gradientUnits="userSpaceOnUse">
<stop offset="0.35" stop-color="#E6EEFF"/>
<stop offset="0.9" stop-color="#C9B8FF"/>
</linearGradient>
<linearGradient id="paint9_linear_72_4" x1="13" y1="83.22" x2="1615" y2="83.22" gradientUnits="userSpaceOnUse">
<stop offset="0.35" stop-color="#E6EEFF"/>
<stop offset="0.9" stop-color="#C9B8FF"/>
</linearGradient>
<linearGradient id="paint10_linear_72_4" x1="13" y1="83.22" x2="1615" y2="83.22" gradientUnits="userSpaceOnUse">
<stop offset="0.35" stop-color="#E6EEFF"/>
<stop offset="0.9" stop-color="#C9B8FF"/>
</linearGradient>
<linearGradient id="paint11_linear_72_4" x1="13" y1="83.22" x2="1615" y2="83.22" gradientUnits="userSpaceOnUse">
<stop offset="0.35" stop-color="#E6EEFF"/>
<stop offset="0.9" stop-color="#C9B8FF"/>
</linearGradient>
<linearGradient id="paint12_linear_72_4" x1="13" y1="83.22" x2="1615" y2="83.22" gradientUnits="userSpaceOnUse">
<stop offset="0.35" stop-color="#E6EEFF"/>
<stop offset="0.9" stop-color="#C9B8FF"/>
</linearGradient>
<linearGradient id="paint13_linear_72_4" x1="13" y1="83.22" x2="1615" y2="83.22" gradientUnits="userSpaceOnUse">
<stop offset="0.35" stop-color="#E6EEFF"/>
<stop offset="0.9" stop-color="#C9B8FF"/>
</linearGradient>
<linearGradient id="paint14_linear_72_4" x1="13" y1="83.22" x2="1615" y2="83.22" gradientUnits="userSpaceOnUse">
<stop offset="0.35" stop-color="#E6EEFF"/>
<stop offset="0.9" stop-color="#C9B8FF"/>
</linearGradient>
<linearGradient id="paint15_linear_72_4" x1="13" y1="83.22" x2="1615" y2="83.22" gradientUnits="userSpaceOnUse">
<stop offset="0.35" stop-color="#E6EEFF"/>
<stop offset="0.9" stop-color="#C9B8FF"/>
</linearGradient>
</defs>
</svg>
